#!OML:ASF X:\für Bonn\!DataBase\2005_08_11_Bastian_Final\c3d\Bastian.ASF
:FULLY-SPECIFIED
:DEGREES
882
root 0.607655 1.64431 -1.00612 99.638 2.40071 -179.31
lowerback 51.9431 -13.6527 -1.07143
upperback 25.9128 -1.31152 1.41025
thorax 8.5274 6.67055 3.54491
lowerneck 15.4856 -7.48315 0.978221
upperneck -6.54394 -10.6167 -5.53021
head -4.81644 -4.99243 -0.937257
rclavicle -4.7112e-014 -1.52667e-013
rhumerus -13.9829 6.73187 -58.1228
rradius 87.3522
rwrist -191.894
rhand -13.3074 -2.98244
rfingers 7.12502
rthumb 12.7968 -32.5702
lclavicle -4.7112e-014 -1.52667e-013
lhumerus -19.3729 6.21696 71.0527
lradius 88.1157
lwrist 244.677
lhand -21.6853 24.1702
lfingers 7.12502
lthumb 4.71264 54.0978
rfemur -60.0042 -0.727273 32.2389
rtibia 93.1151
rfoot 14.3334 -3.7323
rtoes -2.04833
lfemur -42.4848 5.5245 -10.8909
ltibia 68.5124
lfoot 9.35458 -6.80591
ltoes -29.8678
883
root 0.608524 1.64478 -1.01029 99.7431 2.46217 -179.312
lowerback 52.0661 -13.6534 -1.11103
upperback 25.8695 -1.33638 1.32801
thorax 8.46481 6.6558 3.47107
lowerneck 15.1478 -7.32775 0.792627
upperneck -6.78545 -10.4234 -5.36397
head -4.81307 -4.89581 -0.8844
rclavicle -4.67144e-014 -2.54444e-014
rhumerus -15.0199 7.2579 -57.922
rradius 88.0208
rwrist -190.979
rhand -13.5239 -2.94961
rfingers 7.12502
rthumb 12.5881 -32.5504
lclavicle -4.67144e-014 -2.54444e-014
lhumerus -18.1211 5.89299 70.5904
lradius 88.4332
lwrist 244.36
lhand -21.8455 24.0802
lfingers 7.12502
lthumb 4.558 54.0111
rfemur -60.0294 -1.04708 32.1722
rtibia 92.9372
rfoot 14.2713 -3.7677
rtoes -1.88228
lfemur -43.2418 5.6721 -10.7492
ltibia 69.7268
lfoot 9.52266 -6.93416
ltoes -29.3176
884
root 0.609852 1.64599 -1.01239 99.8344 2.50699 -179.314
lowerback 52.1966 -13.6533 -1.19987
upperback 25.8537 -1.36275 1.25375
thorax 8.43711 6.64252 3.4343
lowerneck 14.7003 -7.15139 0.553973
upperneck -6.94357 -10.2079 -5.19244
head -4.76299 -4.7927 -0.829047
rclavicle -4.35338e-014 -1.46306e-013
rhumerus -15.9826 7.79784 -57.6792
rradius 88.6588
rwrist -190.044
rhand -13.7668 -2.90267
rfingers 7.12502
rthumb 12.3539 -32.5177
lclavicle -4.35338e-014 -1.46306e-013
lhumerus -16.8263 5.60829 70.1233
lradius 88.6733
lwrist 244.129
lhand -22.0033 23.9546
lfingers 7.12502
lthumb 4.40558 53.8887
rfemur -60.0161 -1.37715 32.0903
rtibia 92.7478
rfoot 14.1853 -3.81028
rtoes -1.89547
lfemur -43.9884 5.81479 -10.6263
ltibia 70.9581
lfoot 9.68027 -7.05124
ltoes -28.9736
885
root 0.610883 1.64647 -1.0159 99.9386 2.54639 -179.32
lowerback 52.3347 -13.6421 -1.2984
upperback 25.8288 -1.38494 1.17699
thorax 8.39805 6.62781 3.39592
lowerneck 14.2497 -6.97785 0.382624
upperneck -7.06145 -9.98284 -5.04427
head -4.70472 -4.6865 -0.791971
rclavicle -1.96797e-014 -8.26944e-014
rhumerus -16.9072 8.29005 -57.4689
rradius 89.2491
rwrist -189.087
rhand -14.0217 -2.86492
rfingers 7.12502
rthumb 12.1082 -32.4946
lclavicle -1.96797e-014 -8.26944e-014
lhumerus -15.5462 5.28566 69.5655
lradius 88.8599
lwrist 243.889
lhand -22.085 23.902
lfingers 7.12502
lthumb 4.32673 53.8378
rfemur -60.0211 -1.7202 32.0057
rtibia 92.5583
rfoot 14.1165 -3.84058
rtoes -2.11685
lfemur -44.767 5.96837 -10.5181
ltibia 72.2204
lfoot 9.88213 -7.15996
ltoes -28.6298
886
root 0.6115 1.64757 -1.01897 100.02 2.59158 -179.326
lowerback 52.4741 -13.6549 -1.39487
upperback 25.8281 -1.41938 1.08486
thorax 8.38864 6.6179 3.34865
lowerneck 13.8229 -6.79537 0.147134
upperneck -7.21475 -9.75428 -4.85294
head -4.65629 -4.57824 -0.730043
rclavicle -1.31198e-014 -2.22639e-014
rhumerus -17.7766 8.79207 -57.2636
rradius 89.8246
rwrist -188.084
rhand -14.1651 -2.79619
rfingers 7.12502
rthumb 11.97 -32.4339
lclavicle -1.31198e-014 -2.22639e-014
lhumerus -14.2426 4.97114 68.9552
lradius 88.9704
lwrist 243.707
lhand -22.0635 23.7897
lfingers 7.12502
lthumb 4.34744 53.7251
rfemur -59.9825 -2.11153 31.9289
rtibia 92.3651
rfoot 14.049 -3.83909
rtoes -2.25879
lfemur -45.5337 6.12399 -10.4142
ltibia 73.5118
lfoot 10.0454 -7.31555
ltoes -28.6731
887
root 0.612153 1.64915 -1.02173 100.124 2.63157 -179.331
lowerback 52.6211 -13.653 -1.46731
upperback 25.7942 -1.44093 1.00314
thorax 8.33717 6.60754 3.2914
lowerneck 13.4767 -6.63494 -0.0384184
upperneck -7.36142 -9.54577 -4.66288
head -4.62229 -4.47991 -0.67106
rclavicle 4.25399e-014 1.59028e-014
rhumerus -18.7332 9.25676 -57.0563
rradius 90.4261
rwrist -187.131
rhand -14.2241 -2.64433
rfingers 7.12502
rthumb 11.913 -32.2854
lclavicle 4.25399e-014 1.59028e-014
lhumerus -12.9533 4.59177 68.2899
lradius 88.978
lwrist 243.654
lhand -22.0679 23.6547
lfingers 7.12502
lthumb 4.34317 53.5902
rfemur -59.9734 -2.54345 31.8623
rtibia 92.1784
rfoot 14.0174 -3.82191
rtoes -2.34879
lfemur -46.34 6.30491 -10.317
ltibia 74.8407
lfoot 10.2561 -7.43265
ltoes -28.6099
888
root 0.613158 1.65125 -1.02484 100.209 2.67689 -179.348
lowerback 52.7814 -13.6454 -1.5853
upperback 25.7841 -1.46139 0.926224
thorax 8.31562 6.59868 3.26415
lowerneck 13.1642 -6.46152 -0.288349
upperneck -7.52619 -9.32807 -4.43282
head -4.59485 -4.37699 -0.588782
rclavicle 8.34896e-015 -6.67916e-014
rhumerus -19.6111 9.7705 -56.8106
rradius 90.9989
rwrist -186.16
rhand -14.1875 -2.42915
rfingers 7.12502
rthumb 11.9483 -32.0682
lclavicle 8.34896e-015 -6.67916e-014
lhumerus -11.6501 4.27231 67.595
lradius 88.869
lwrist 243.722
lhand -22.1115 23.5451
lfingers 7.12502
lthumb 4.30109 53.4815
rfemur -59.9257 -2.97804 31.7937
rtibia 91.9838
rfoot 13.9767 -3.7427
rtoes -2.59086
lfemur -47.1436 6.50001 -10.2205
ltibia 76.2228
lfoot 10.4669 -7.5821
ltoes -28.6156
889
root 0.614557 1.65309 -1.02332 100.302 2.67574 -179.353
lowerback 52.9346 -13.6464 -1.7314
upperback 25.7854 -1.49568 0.850585
thorax 8.31053 6.58404 3.25757
lowerneck 12.882 -6.45395 -0.62751
upperneck -7.72019 -9.11899 -4.15059
head -4.57477 -4.13343 -0.48583
rclavicle 1.39149e-014 2.54444e-014
rhumerus -20.4723 10.2456 -56.5696
rradius 91.5722
rwrist -185.159
rhand -14.1584 -2.20238
rfingers 7.12502
rthumb 11.9763 -31.8398
lclavicle 1.39149e-014 2.54444e-014
lhumerus -10.267 4.00791 66.8889
lradius 88.6081
lwrist 243.861
lhand -22.2045 23.3616
lfingers 7.12502
lthumb 4.21132 53.2997
rfemur -59.8763 -3.37982 31.6336
rtibia 91.7873
rfoot 13.9194 -3.72881
rtoes -2.46287
lfemur -47.9733 6.68332 -10.1808
ltibia 77.6284
lfoot 10.6979 -7.73305
ltoes -28.7499
890
root 0.616386 1.65457 -1.02254 100.395 2.71511 -179.358
lowerback 53.0886 -13.6588 -1.82874
upperback 25.7839 -1.52475 0.751207
thorax 8.29956 6.5803 3.20095
lowerneck 12.6718 -6.3105 -0.868051
upperneck -7.91057 -8.95125 -3.9015
head -4.574 -4.06201 -0.389636
rclavicle -2.00773e-014 -7.95139e-014
rhumerus -21.3502 10.7399 -56.3647
rradius 92.1693
rwrist -184.188
rhand -14.0653 -1.90938
rfingers 7.12502
rthumb 12.0661 -31.5415
lclavicle -2.00773e-014 -7.95139e-014
lhumerus -8.82203 3.69464 66.0828
lradius 88.2264
lwrist 244.076
lhand -22.2758 23.1191
lfingers 7.12502
lthumb 4.1424 53.0586
rfemur -59.8072 -3.73194 31.5111
rtibia 91.5885
rfoot 13.8272 -3.7185
rtoes -2.56083
lfemur -48.8309 6.88089 -10.0929
ltibia 79.0844
lfoot 10.9176 -7.89844
ltoes -28.8815
891
root 0.617724 1.65631 -1.02008 100.479 2.73925 -179.379
lowerback 53.2663 -13.6585 -1.95392
upperback 25.7811 -1.54513 0.653816
thorax 8.28639 6.5797 3.15614
lowerneck 12.4928 -6.1737 -1.12883
upperneck -8.08261 -8.79016 -3.61985
head -4.57102 -3.9948 -0.279008
rclavicle -3.37934e-015 -1.33583e-013
rhumerus -22.1861 11.2077 -56.16
rradius 92.6933
rwrist -183.179
rhand -13.9723 -1.72254
rfingers 7.12502
rthumb 12.1558 -31.3494
lclavicle -3.37934e-015 -1.33583e-013
lhumerus -7.34604 3.38582 65.221
lradius 87.7546
lwrist 244.374
lhand -22.3327 22.8628
lfingers 7.12502
lthumb 4.08752 52.8033
rfemur -59.7341 -4.08087 31.3606
rtibia 91.4033
rfoot 13.753 -3.65554
rtoes -2.63538
lfemur -49.6709 7.09619 -10.0314
ltibia 80.5523
lfoot 11.1425 -8.06146
ltoes -28.9269
